<svg width="91" height="83" viewBox="0 0 91 83" fill="none" xmlns="http://www.w3.org/2000/svg">
<path d="M0.140092 53.4979C0.0367655 53.0966 0.278316 52.6875 0.67961 52.5842L16.3686 48.5445C16.7699 48.4412 17.179 48.6828 17.2823 49.084L21.2837 64.6243C21.387 65.0256 21.1455 65.4346 20.7442 65.538L5.05513 69.5776C4.65384 69.681 4.24477 69.4394 4.14144 69.0381L0.140092 53.4979Z" fill="#FFBCAB"/>
<path d="M69.186 35.7191C69.0827 35.3178 69.3242 34.9087 69.7255 34.8054L85.4146 30.7657C85.8158 30.6624 86.2249 30.904 86.3282 31.3052L90.3296 46.8455C90.4329 47.2468 90.1914 47.6558 89.7901 47.7592L74.101 51.7988C73.6998 51.9022 73.2907 51.6606 73.1873 51.2593L69.186 35.7191Z" fill="#FFBCAB"/>
<path d="M21.6601 66.0761C21.5567 65.6748 21.7983 65.2657 22.1996 65.1624L72.6493 52.1724C73.0506 52.0691 73.4597 52.3107 73.563 52.712L77.5643 68.2522C77.6677 68.6535 77.4261 69.0625 77.0248 69.1659L26.5751 82.1558C26.1738 82.2592 25.7647 82.0176 25.6614 81.6163L21.6601 66.0761Z" fill="#FFBCAB"/>
<path d="M8.33132 14.3122C8.228 13.9109 8.46955 13.5018 8.87084 13.3985L24.5599 9.35885C24.9612 9.25553 25.3703 9.49708 25.4736 9.89837L29.4749 25.4386C29.5783 25.8399 29.3367 26.249 28.9354 26.3523L13.2464 30.3919C12.8451 30.4953 12.436 30.2537 12.3327 29.8524L8.33132 14.3122Z" fill="#FFBCAB"/>
<path d="M43.093 5.36249C42.9897 4.9612 43.2313 4.55213 43.6326 4.4488L59.3216 0.409135C59.7229 0.305808 60.132 0.547359 60.2353 0.948652L64.2366 16.4889C64.34 16.8902 64.0984 17.2992 63.6971 17.4026L48.0081 21.4422C47.6068 21.5456 47.1977 21.304 47.0944 20.9027L43.093 5.36249Z" fill="#FFBCAB"/>
</svg>
