<svg width="127" height="74" viewBox="0 0 127 74" fill="none" xmlns="http://www.w3.org/2000/svg">
<path d="M16.285 52.8866L35.1635 32.061C35.2217 31.9968 35.2396 31.9052 35.2099 31.8235L30.8651 19.8821C30.8046 19.7156 30.5892 19.6758 30.4743 19.81L0.0562346 55.3078C0.00133301 55.3719 -0.014783 55.461 0.0141536 55.5406L2.93535 63.5694C2.96622 63.6543 3.04291 63.7134 3.13208 63.7211L47.8774 67.6014C48.0456 67.616 48.1718 67.4491 48.1136 67.289L43.7621 55.3291C43.7308 55.243 43.6522 55.1834 43.5616 55.1771L16.4391 53.2762C16.2465 53.2627 16.1546 53.0304 16.285 52.8866Z" fill="#FFEDF5"/>
<path d="M16.285 52.8866L35.1635 32.061C35.2217 31.9968 35.2396 31.9052 35.2099 31.8235L30.8651 19.8821C30.8046 19.7156 30.5892 19.6758 30.4743 19.81L0.0562346 55.3078C0.00133301 55.3719 -0.014783 55.461 0.0141536 55.5406L2.93535 63.5694C2.96622 63.6543 3.04291 63.7134 3.13208 63.7211L47.8774 67.6014C48.0456 67.616 48.1718 67.4491 48.1136 67.289L43.7621 55.3291C43.7308 55.243 43.6522 55.1834 43.5616 55.1771L16.4391 53.2762C16.2465 53.2627 16.1546 53.0304 16.285 52.8866Z" fill="#FFEDF5"/>
<path d="M16.285 52.8866L35.1635 32.061C35.2217 31.9968 35.2396 31.9052 35.2099 31.8235L30.8651 19.8821C30.8046 19.7156 30.5892 19.6758 30.4743 19.81L0.0562346 55.3078C0.00133301 55.3719 -0.014783 55.461 0.0141536 55.5406L2.93535 63.5694C2.96622 63.6543 3.04291 63.7134 3.13208 63.7211L47.8774 67.6014C48.0456 67.616 48.1718 67.4491 48.1136 67.289L43.7621 55.3291C43.7308 55.243 43.6522 55.1834 43.5616 55.1771L16.4391 53.2762C16.2465 53.2627 16.1546 53.0304 16.285 52.8866Z" fill="#FFEDF5"/>
<path d="M109.963 18.1229L82.2249 14.5968C82.1393 14.5859 82.067 14.5278 82.0372 14.446L77.6925 2.50466C77.6319 2.33815 77.7705 2.1671 77.9441 2.19416L123.883 9.35594C123.966 9.36886 124.036 9.42625 124.065 9.50578L126.986 17.5346C127.017 17.6195 126.996 17.7147 126.933 17.7789L95.3212 49.9952C95.2023 50.1163 94.9992 50.0717 94.9409 49.9116L90.5895 37.9517C90.5581 37.8656 90.5798 37.7689 90.6448 37.7047L110.096 18.5206C110.234 18.3843 110.155 18.1472 109.963 18.1229Z" fill="#FFEDF5"/>
<path d="M109.963 18.1229L82.2249 14.5968C82.1393 14.5859 82.067 14.5278 82.0372 14.446L77.6925 2.50466C77.6319 2.33815 77.7705 2.1671 77.9441 2.19416L123.883 9.35594C123.966 9.36886 124.036 9.42625 124.065 9.50578L126.986 17.5346C127.017 17.6195 126.996 17.7147 126.933 17.7789L95.3212 49.9952C95.2023 50.1163 94.9992 50.0717 94.9409 49.9116L90.5895 37.9517C90.5581 37.8656 90.5798 37.7689 90.6448 37.7047L110.096 18.5206C110.234 18.3843 110.155 18.1472 109.963 18.1229Z" fill="#FFEDF5"/>
<path d="M109.963 18.1229L82.2249 14.5968C82.1393 14.5859 82.067 14.5278 82.0372 14.446L77.6925 2.50466C77.6319 2.33815 77.7705 2.1671 77.9441 2.19416L123.883 9.35594C123.966 9.36886 124.036 9.42625 124.065 9.50578L126.986 17.5346C127.017 17.6195 126.996 17.7147 126.933 17.7789L95.3212 49.9952C95.2023 50.1163 94.9992 50.0717 94.9409 49.9116L90.5895 37.9517C90.5581 37.8656 90.5798 37.7689 90.6448 37.7047L110.096 18.5206C110.234 18.3843 110.155 18.1472 109.963 18.1229Z" fill="#FFEDF5"/>
<path d="M68.043 0.0144952L56.181 4.41647C56.0901 4.45021 56.0297 4.53777 56.0299 4.63561L56.186 73.7674C56.1863 73.9292 56.3458 74.0413 56.4961 73.9855L68.3581 69.5835C68.4491 69.5498 68.5094 69.4622 68.5092 69.3644L68.3532 0.23257C68.3528 0.0708416 68.1933 -0.0412862 68.043 0.0144952Z" fill="#FFEDF5"/>
</svg>
