<svg width="124" height="119" viewBox="0 0 124 119" fill="none" xmlns="http://www.w3.org/2000/svg">
<path d="M27.6316 109.871C25.6441 108.965 24.8358 106.568 25.8692 104.645L43.0769 72.6084L6.46806 78.3473C4.31911 78.6842 2.33027 77.1414 2.12218 74.9762L0.180896 54.7772C-0.0295447 52.5876 1.66781 50.6818 3.86713 50.6384L40.7402 49.9108L17.0856 21.6157C15.6747 19.928 15.9983 17.3966 17.7883 16.1181L34.301 4.32397C36.0711 3.05971 38.5404 3.54747 39.6968 5.38979L59.3973 36.775L72.2707 2.7648C73.0438 0.722277 75.3826 -0.241241 77.3701 0.663977L95.9231 9.11402C97.9142 10.0209 98.7211 12.424 97.6808 14.3487L80.3912 46.3367L117 40.5978C119.149 40.2609 121.138 41.8037 121.346 43.9689L123.288 64.1724C123.498 66.3604 121.803 68.2653 119.606 68.3112L82.8242 69.0781L106.389 97.33C107.797 99.0179 107.472 101.547 105.683 102.824L89.1671 114.621C87.397 115.885 84.9277 115.398 83.7713 113.555L64.0708 82.1701L51.2875 116.211C50.5184 118.259 48.1757 119.227 46.1846 118.321L27.6316 109.871Z" fill="#ECFFCE"/>
</svg>
