<svg width="148" height="145" viewBox="0 0 148 145" fill="none" xmlns="http://www.w3.org/2000/svg">
<path d="M86.8945 15.464L32.2253 15.3895C29.0814 15.3852 26.2937 17.4374 25.4139 20.4557C11.6467 67.6904 15.7742 93.0648 57.4719 127.564C59.0779 128.892 61.2394 129.443 63.2841 129.038C113.113 119.17 129.057 98.9245 142.156 51.2281C143.021 48.0808 141.594 44.7565 138.739 43.1745L90.3511 16.3602C89.2932 15.774 88.1039 15.4656 86.8945 15.464Z" fill="#F1619C"/>
<path d="M105.8 44.3355L75.9898 39.2433L55.0045 71.0547L70.1149 73.6359L54.6493 100.322L96.7651 67.5694L77.8258 64.3342L105.8 44.3355Z" fill="#E6FFC0"/>
</svg>
