<svg width="100" height="100" viewBox="0 0 100 100" fill="none" xmlns="http://www.w3.org/2000/svg">
<path d="M86.6577 36.6576C94.0264 56.9031 83.5878 79.2889 63.3423 86.6576C43.0968 94.0264 20.7111 83.5877 13.3423 63.3423C5.97355 43.0968 16.4122 20.711 36.6577 13.3423C56.9032 5.97351 79.2889 16.4122 86.6577 36.6576Z" fill="#A2B87E"/>
<path d="M37.7313 54.3253L42.5799 49.0799C42.5948 49.0637 42.5994 49.0407 42.5918 49.0201L41.4759 46.0124C41.4604 45.9704 41.4051 45.9604 41.3755 45.9942L33.5633 54.9351C33.5492 54.9513 33.545 54.9737 33.5525 54.9937L34.3027 57.016C34.3106 57.0373 34.3303 57.0522 34.3532 57.0542L45.8452 58.0315C45.8884 58.0352 45.9208 57.9932 45.9058 57.9528L44.7882 54.9405C44.7802 54.9188 44.76 54.9038 44.7367 54.9022L37.7709 54.4234C37.7214 54.42 37.6978 54.3615 37.7313 54.3253Z" fill="#FFEDF5"/>
<path d="M37.7313 54.3253L42.5799 49.0799C42.5948 49.0637 42.5994 49.0407 42.5918 49.0201L41.4759 46.0124C41.4604 45.9704 41.4051 45.9604 41.3755 45.9942L33.5633 54.9351C33.5492 54.9513 33.545 54.9737 33.5525 54.9937L34.3027 57.016C34.3106 57.0373 34.3303 57.0522 34.3532 57.0542L45.8452 58.0315C45.8884 58.0352 45.9208 57.9932 45.9058 57.9528L44.7882 54.9405C44.7802 54.9188 44.76 54.9038 44.7367 54.9022L37.7709 54.4234C37.7214 54.42 37.6978 54.3615 37.7313 54.3253Z" fill="#FFEDF5"/>
<path d="M37.7313 54.3253L42.5799 49.0799C42.5948 49.0637 42.5994 49.0407 42.5918 49.0201L41.4759 46.0124C41.4604 45.9704 41.4051 45.9604 41.3755 45.9942L33.5633 54.9351C33.5492 54.9513 33.545 54.9737 33.5525 54.9937L34.3027 57.016C34.3106 57.0373 34.3303 57.0522 34.3532 57.0542L45.8452 58.0315C45.8884 58.0352 45.9208 57.9932 45.9058 57.9528L44.7882 54.9405C44.7802 54.9188 44.76 54.9038 44.7367 54.9022L37.7709 54.4234C37.7214 54.42 37.6978 54.3615 37.7313 54.3253Z" fill="#FFEDF5"/>
<path d="M61.7907 45.5693L54.6666 44.6812C54.6447 44.6784 54.6261 44.6638 54.6184 44.6432L53.5026 41.6355C53.487 41.5936 53.5226 41.5505 53.5672 41.5573L65.3658 43.3611C65.3871 43.3644 65.4049 43.3788 65.4123 43.3989L66.1626 45.4211C66.1705 45.4425 66.1652 45.4665 66.1491 45.4826L58.0302 53.597C57.9996 53.6275 57.9474 53.6163 57.9325 53.576L56.8149 50.5636C56.8069 50.5419 56.8124 50.5175 56.8291 50.5014L61.8247 45.6694C61.8602 45.6351 61.8399 45.5754 61.7907 45.5693Z" fill="#FFEDF5"/>
<path d="M61.7907 45.5693L54.6666 44.6812C54.6447 44.6784 54.6261 44.6638 54.6184 44.6432L53.5026 41.6355C53.487 41.5936 53.5226 41.5505 53.5672 41.5573L65.3658 43.3611C65.3871 43.3644 65.4049 43.3788 65.4123 43.3989L66.1626 45.4211C66.1705 45.4425 66.1652 45.4665 66.1491 45.4826L58.0302 53.597C57.9996 53.6275 57.9474 53.6163 57.9325 53.576L56.8149 50.5636C56.8069 50.5419 56.8124 50.5175 56.8291 50.5014L61.8247 45.6694C61.8602 45.6351 61.8399 45.5754 61.7907 45.5693Z" fill="#FFEDF5"/>
<path d="M61.7907 45.5693L54.6666 44.6812C54.6447 44.6784 54.6261 44.6638 54.6184 44.6432L53.5026 41.6355C53.487 41.5936 53.5226 41.5505 53.5672 41.5573L65.3658 43.3611C65.3871 43.3644 65.4049 43.3788 65.4123 43.3989L66.1626 45.4211C66.1705 45.4425 66.1652 45.4665 66.1491 45.4826L58.0302 53.597C57.9996 53.6275 57.9474 53.6163 57.9325 53.576L56.8149 50.5636C56.8069 50.5419 56.8124 50.5175 56.8291 50.5014L61.8247 45.6694C61.8602 45.6351 61.8399 45.5754 61.7907 45.5693Z" fill="#FFEDF5"/>
<path d="M51.0243 41.0083L47.9778 42.117C47.9544 42.1255 47.9389 42.1476 47.939 42.1722L47.9791 59.5846C47.9792 59.6253 48.0201 59.6535 48.0587 59.6395L51.1052 58.5308C51.1286 58.5223 51.1441 58.5002 51.144 58.4756L51.104 41.0632C51.1039 41.0225 51.0629 40.9942 51.0243 41.0083Z" fill="#FFEDF5"/>
</svg>
