<svg width="100" height="100" viewBox="0 0 100 100" fill="none" xmlns="http://www.w3.org/2000/svg">
<path d="M86.6577 36.6577C94.0264 56.9031 83.5878 79.2889 63.3423 86.6577C43.0968 94.0264 20.7111 83.5878 13.3423 63.3423C5.97356 43.0968 16.4122 20.711 36.6577 13.3423C56.9032 5.97351 79.2889 16.4122 86.6577 36.6577Z" fill="#262625"/>
<path d="M39.0685 53.577C39.0426 53.4773 39.1032 53.3757 39.204 53.3501L43.1431 52.3469C43.2438 52.3212 43.3465 52.3812 43.3725 52.4809L44.3771 56.3401C44.4031 56.4397 44.3424 56.5413 44.2416 56.567L40.3025 57.5702C40.2018 57.5958 40.0991 57.5358 40.0731 57.4362L39.0685 53.577Z" fill="#F3F3F1"/>
<path d="M56.4041 49.1619C56.3782 49.0622 56.4388 48.9606 56.5396 48.935L60.4787 47.9318C60.5795 47.9061 60.6822 47.9661 60.7081 48.0658L61.7128 51.9249C61.7387 52.0246 61.678 52.1262 61.5773 52.1518L57.6382 53.155C57.5374 53.1807 57.4347 53.1207 57.4088 53.0211L56.4041 49.1619Z" fill="#F3F3F1"/>
<path d="M44.4716 56.7006C44.4457 56.6009 44.5063 56.4994 44.6071 56.4737L57.2737 53.2478C57.3744 53.2222 57.4771 53.2821 57.5031 53.3818L58.5077 57.241C58.5337 57.3407 58.473 57.4422 58.3723 57.4679L45.7056 60.6938C45.6049 60.7194 45.5022 60.6594 45.4762 60.5598L44.4716 56.7006Z" fill="#F3F3F1"/>
<path d="M41.1251 43.8458C41.0992 43.7461 41.1598 43.6445 41.2606 43.6189L45.1997 42.6157C45.3004 42.59 45.4031 42.65 45.4291 42.7497L46.4337 46.6088C46.4597 46.7085 46.399 46.8101 46.2983 46.8358L42.3591 47.8389C42.2584 47.8646 42.1557 47.8046 42.1297 47.705L41.1251 43.8458Z" fill="#F3F3F1"/>
<path d="M49.8529 41.6232C49.8269 41.5236 49.8876 41.422 49.9883 41.3963L53.9274 40.3931C54.0282 40.3675 54.1309 40.4275 54.1569 40.5271L55.1615 44.3863C55.1874 44.486 55.1268 44.5876 55.026 44.6132L51.0869 45.6164C50.9862 45.6421 50.8835 45.5821 50.8575 45.4824L49.8529 41.6232Z" fill="#F3F3F1"/>
</svg>
