<svg width="23" height="24" viewBox="0 0 23 24" fill="none" xmlns="http://www.w3.org/2000/svg">
<rect y="0.70105" width="23" height="23" rx="11.5" fill="#F3F3F1"/>
<path d="M14.1738 19.6812C13.6563 19.8188 13.1668 19.8991 12.6777 19.9253C11.8421 19.973 11.0373 19.8713 10.2896 19.6278C9.02103 19.2134 7.95659 18.4312 7.12494 17.2985C6.60564 16.5914 6.21321 15.7863 5.95975 14.9069C5.70677 14.0294 5.62092 13.1407 5.7072 12.2685C5.79646 11.3602 6.06764 10.4991 6.51102 9.71061C6.98103 8.87556 7.61884 8.15163 8.40986 7.55308C9.0971 7.03194 9.86422 6.61831 10.6914 6.32162C10.9063 6.24372 11.1237 6.17554 11.3417 6.1176C11.7587 6.00674 12.1846 5.93091 12.608 5.8931L12.6792 5.88664C13.0072 5.85551 13.3456 5.82576 13.7471 5.87685C13.7471 5.87685 13.7803 5.88046 14.316 5.95816C14.3308 5.96047 14.3432 5.96962 14.3523 5.98173C14.7368 6.65192 15.0865 7.35215 15.392 8.06202C15.7622 8.9229 16.0785 9.81885 16.3303 10.7237C16.3367 10.7489 16.3251 10.7749 16.3009 10.7834C16.3009 10.7834 16.0762 10.8784 16.0724 10.8794C16.061 10.8824 16.0468 10.8821 16.0377 10.8783C15.5749 10.6732 15.0938 10.5312 14.6076 10.457C14.3273 10.4131 13.8601 10.3421 13.2661 10.4253C13.1058 10.4471 12.946 10.4792 12.7887 10.521C12.7166 10.5402 12.6465 10.5588 12.574 10.5843C12.1236 10.731 11.7343 10.9031 11.3837 11.1084C10.8381 11.4299 10.4689 11.7772 10.2255 12.2053C9.95347 12.6804 9.88459 13.1825 10.0178 13.6994C10.106 14.0393 10.2432 14.3247 10.4365 14.5764C10.714 14.9366 11.0773 15.1723 11.5154 15.2801C11.9773 15.394 12.4556 15.381 12.9768 15.2425C13.0565 15.2213 13.1337 15.1987 13.2118 15.1717C13.7493 14.9935 14.2401 14.7509 14.6701 14.4518C14.8424 14.3334 15.0064 14.1984 15.1594 14.0518C15.5191 13.7071 15.7241 13.3744 15.9215 13.052C16.1362 12.7021 16.327 12.3296 16.4858 11.9427C16.4909 11.9309 16.5008 11.9221 16.5117 11.9171L16.7317 11.8192C16.7525 11.8136 16.7754 11.8242 16.7865 11.844C17.1453 12.5086 17.4759 13.1973 17.7718 13.8931C18.1343 14.7477 18.4524 15.6349 18.7155 16.5284C18.7185 16.5401 18.719 16.5503 18.7139 16.562C18.7065 16.5806 18.6968 16.606 18.6842 16.6364C18.4291 17.242 17.9726 17.5959 17.443 18.0045C17.3685 18.0617 17.2926 18.1213 17.2166 18.1809C16.515 18.7329 15.7205 19.1663 14.8582 19.4681C14.6276 19.5481 14.3989 19.6193 14.1771 19.6783L14.1738 19.6812Z" fill="#262625"/>
<path d="M11.3507 6.16918C11.764 6.05933 12.1842 5.98501 12.6076 5.94721C12.9536 5.91544 13.3119 5.87625 13.7367 5.93153C13.7367 5.93153 13.7699 5.93514 14.3051 6.01089C14.6529 6.6161 15.0067 7.30898 15.3414 8.08585C15.7543 9.04335 16.0545 9.93944 16.2777 10.7397C16.203 10.772 16.1277 10.8024 16.053 10.8347C15.4805 10.58 14.9758 10.465 14.61 10.4106C14.2965 10.3632 13.8402 10.2955 13.2543 10.3786C13.092 10.4009 12.9322 10.433 12.7711 10.4759C12.6991 10.495 12.6252 10.5147 12.5546 10.5396C12.1359 10.6759 11.7337 10.8451 11.3534 11.0687C10.8801 11.3481 10.4577 11.693 10.1773 12.1828C9.90387 12.6604 9.8237 13.1738 9.96517 13.7155C10.0505 14.0437 10.1878 14.3456 10.3927 14.6109C10.6793 14.9832 11.0498 15.2232 11.4983 15.3324C12.0012 15.4562 12.4968 15.4241 12.984 15.2946C13.0636 15.2734 13.1427 15.2503 13.2227 15.2228C13.7456 15.0506 14.2379 14.8138 14.6938 14.4975C14.8708 14.3736 15.0348 14.2386 15.1878 14.092C15.5456 13.7478 15.7455 13.4268 15.9574 13.0819C16.1268 12.8084 16.3313 12.4343 16.5259 11.9652C16.5969 11.9339 16.6679 11.9026 16.7388 11.8713C17.07 12.4829 17.4029 13.1648 17.7231 13.9165C18.1205 14.8531 18.4263 15.7394 18.6653 16.5459C18.6593 16.562 18.6496 16.5874 18.6351 16.6183C18.3499 17.2963 17.8045 17.6509 17.1825 18.1423C16.471 18.7031 15.6878 19.1251 14.8383 19.4215C14.6134 19.5 14.3884 19.5702 14.1609 19.6307C13.6738 19.7602 13.1796 19.8458 12.673 19.8746C11.8672 19.9206 11.0735 19.8306 10.3015 19.579C9.011 19.1579 7.97219 18.373 7.16171 17.2679C6.63566 16.5502 6.25377 15.7547 6.00475 14.8928C5.7572 14.0367 5.66532 13.1642 5.75334 12.2749C5.84169 11.3711 6.10826 10.5236 6.55023 9.73756C7.02816 8.88587 7.66423 8.17901 8.43497 7.59623C9.1312 7.07064 9.88793 6.66392 10.7023 6.3727C10.9153 6.2953 11.1313 6.22957 11.3493 6.17163M11.3247 6.07437C11.1067 6.13231 10.8874 6.20099 10.6705 6.2794C9.8396 6.5771 9.06918 6.99369 8.37675 7.51827C7.58054 8.12028 6.93802 8.84962 6.46521 9.68957C6.01763 10.4854 5.74554 11.3509 5.65636 12.2675C5.56917 13.144 5.65601 14.0366 5.91096 14.9219C6.1659 15.8072 6.56122 16.6157 7.08389 17.3281C7.9218 18.4695 8.9939 19.258 10.2734 19.6757C11.0278 19.9216 11.8387 20.0237 12.6806 19.9764C13.1734 19.9492 13.6667 19.8679 14.188 19.7294C14.4098 19.6704 14.6405 19.5987 14.873 19.5182C15.7409 19.2148 16.5392 18.7805 17.2455 18.2231C17.3234 18.163 17.3974 18.1038 17.4719 18.0466C18.0062 17.6326 18.4684 17.2772 18.7281 16.6579C18.7407 16.6276 18.7518 16.5997 18.7578 16.5836C18.7667 16.5625 18.7669 16.5396 18.7615 16.5182C18.4979 15.6228 18.1798 14.7356 17.8163 13.8771C17.5199 13.1794 17.1889 12.4887 16.8282 11.8247C16.8059 11.7849 16.7601 11.7638 16.7184 11.7749C16.7127 11.7764 16.7089 11.7775 16.7033 11.779L16.4904 11.8729C16.4667 11.8834 16.4493 11.9025 16.4391 11.926C16.2817 12.3105 16.0923 12.6806 15.879 13.028C15.6745 13.3626 15.4794 13.6782 15.1244 14.0175C14.9747 14.1612 14.8126 14.2956 14.6422 14.4136C14.216 14.7117 13.7285 14.9513 13.1962 15.126C13.1175 15.1511 13.0389 15.1761 12.9631 15.1963C12.4494 15.3328 11.9792 15.3457 11.5235 15.2322C11.0964 15.1277 10.7422 14.8959 10.4714 14.5464C10.2819 14.3019 10.1476 14.0199 10.0613 13.6878C9.92974 13.185 9.99779 12.6956 10.2623 12.2308C10.502 11.812 10.8641 11.4687 11.4032 11.153C11.7518 10.9482 12.1379 10.7792 12.5845 10.6334C12.6555 10.6104 12.7252 10.5898 12.7953 10.5712C12.9507 10.5299 13.1105 10.4978 13.2666 10.475C13.8506 10.3924 14.3159 10.4639 14.5938 10.5063C15.0781 10.581 15.5545 10.7202 16.0111 10.9248C16.0316 10.9339 16.0544 10.9361 16.0753 10.9306C16.0791 10.9296 16.0847 10.928 16.0885 10.927L16.3133 10.832C16.3592 10.8136 16.3844 10.7612 16.3696 10.7111C16.1173 9.80438 15.8005 8.90648 15.4299 8.04366C15.1238 7.33184 14.7718 6.63017 14.3868 5.95803C14.3718 5.93087 14.345 5.91307 14.3155 5.90845C13.7847 5.83364 13.7466 5.82714 13.7466 5.82714C13.3409 5.77512 12.9986 5.80588 12.6683 5.83556L12.5952 5.84253C12.1699 5.88084 11.7421 5.95718 11.3213 6.06904L11.3247 6.07437Z" fill="#262625"/>
<path d="M6.80423 7.43565L3.49944 7.43103C3.47958 7.43101 3.46187 7.44476 3.45606 7.46421C2.61112 10.294 2.79677 11.7305 5.2437 13.7576C5.25394 13.7661 5.26799 13.7697 5.28094 13.7673C8.19421 13.2142 9.04206 12.0445 9.77992 9.15731C9.78514 9.13688 9.77629 9.11492 9.75825 9.10469L6.82607 7.44144C6.81939 7.43765 6.81187 7.43566 6.80423 7.43565Z" fill="#F588B9"/>
<path d="M7.74044 9.03739L6.12466 8.75487L4.98723 10.5198L5.80624 10.663L4.96798 12.1436L7.25072 10.3264L6.22418 10.147L7.74044 9.03739Z" fill="#262625"/>
</svg>
